<svg width="76" height="54" viewBox="0 0 76 54" fill="none" xmlns="http://www.w3.org/2000/svg">
<path d="M73.87 31.14L65.3799 40.4C51.0799 55.99 26.8499 57.03 11.2599 42.73L2 34.23L10.36 25.13V25.12C6.88999 17.72 7.92999 4.15 7.92999 4.15C17.01 4.73 24.5699 9.84 24.5699 9.84C31.5099 5.97 40.95 6.12 48.19 9.35C49.19 8.43 55.9 2.53 64.29 2C64.29 2 66.46 16.74 64.55 22.58L73.87 31.14Z" stroke="black" stroke-width="2" stroke-miterlimit="10"/>
<path d="M64.2896 2.01001L53.0195 12.48L64.5396 22.59" stroke="black" stroke-width="2" stroke-miterlimit="10"/>
<path d="M10.3597 25.1299L20.6597 13.5799L7.92969 4.1499" stroke="black" stroke-width="2" stroke-miterlimit="10"/>
<mask id="path-4-inside-1_211_177" fill="white">
<path d="M35 23.9938L30.0062 19L27 22.0062L23.9938 19L19 23.9938L22.0062 27L19 30.0062L23.9938 35L27 31.9938L30.0062 35L35 30.0062L31.9938 27L35 23.9938Z"/>
</mask>
<path d="M35 23.9938L30.0062 19L27 22.0062L23.9938 19L19 23.9938L22.0062 27L19 30.0062L23.9938 35L27 31.9938L30.0062 35L35 30.0062L31.9938 27L35 23.9938Z" fill="#0F172A"/>
<path d="M30.0062 19L43.8218 5.18445L30.0062 19L30.0062 19ZM27 22.0062L19.4178 29.5884L27 22.0062L27 22.0062ZM23.9938 19L38.0959 4.89785L23.9937 19L23.9938 19ZM19 23.9938L55.3781 60.3719L19 23.9938L19 23.9938ZM22.0062 27L10.8192 15.8129L22.0063 26.9999L22.0062 27ZM19 30.0062L31.8608 42.8671L19 30.0062L19 30.0062ZM23.9938 35L-39.0753 98.0691L23.9938 35L23.9938 35ZM27 31.9938L84.7152 -25.7214L27 31.9937L27 31.9938ZM30.0062 35L-27.709 92.7152L30.0063 35L30.0062 35ZM35 30.0062L21.256 16.2622L35 30.0061L35 30.0062ZM31.9938 27L43.9205 38.9267L31.9937 27L31.9938 27ZM35 23.9937L30.0063 19L30.0062 19L35 23.9938L35 23.9937ZM30.0062 19L27 22.0061L27 22.0062L30.0063 19L30.0062 19ZM27 22.0061L23.9938 19L23.9937 19L27 22.0062L27 22.0061ZM23.9937 19L19 23.9937L19 23.9938L23.9938 19L23.9937 19ZM19 23.9938L22.0062 27L22.0063 26.9999L19 23.9937L19 23.9938ZM22.0062 26.9999L19 30.0061L19 30.0062L22.0063 27L22.0062 26.9999ZM19 30.0062L23.9937 35L23.9938 34.9999L19 30.0061L19 30.0062ZM23.9938 35L27 31.9938L27 31.9937L23.9937 34.9999L23.9938 35ZM27 31.9938L30.0062 35L30.0063 34.9999L27 31.9937L27 31.9938ZM30.0063 35L35 30.0062L35 30.0061L30.0062 34.9999L30.0063 35ZM35 30.0061L31.9938 26.9999L31.9937 27L35 30.0062L35 30.0061ZM31.9938 27L35 23.9938L35 23.9937L31.9937 26.9999L31.9938 27Z" fill="white" mask="url(#path-4-inside-1_211_177)"/>
<mask id="path-6-inside-2_211_177" fill="white">
<path d="M54 23.9938L49.0062 19L46 22.0062L42.9938 19L38 23.9938L41.0062 27L38 30.0062L42.9938 35L46 31.9938L49.0062 35L54 30.0062L50.9938 27L54 23.9938Z"/>
</mask>
<path d="M54 23.9938L49.0062 19L46 22.0062L42.9938 19L38 23.9938L41.0062 27L38 30.0062L42.9938 35L46 31.9938L49.0062 35L54 30.0062L50.9938 27L54 23.9938Z" fill="#0F172A"/>
<path d="M49.0062 19L62.8218 5.18445L49.0062 19L49.0062 19ZM46 22.0062L38.4178 29.5884L46 22.0062L46 22.0062ZM42.9938 19L57.0959 4.89785L42.9937 19L42.9938 19ZM38 23.9938L74.3781 60.3719L38 23.9938L38 23.9938ZM41.0062 27L29.8192 15.8129L41.0063 26.9999L41.0062 27ZM38 30.0062L50.8608 42.8671L38 30.0062L38 30.0062ZM42.9938 35L-20.0753 98.0691L42.9938 35L42.9938 35ZM46 31.9938L103.715 -25.7214L46 31.9937L46 31.9938ZM49.0062 35L-8.70895 92.7152L49.0063 35L49.0062 35ZM54 30.0062L40.256 16.2622L54 30.0061L54 30.0062ZM50.9938 27L62.9205 38.9267L50.9937 27L50.9938 27ZM54 23.9937L49.0063 19L49.0062 19L54 23.9938L54 23.9937ZM49.0062 19L46 22.0061L46 22.0062L49.0063 19L49.0062 19ZM46 22.0061L42.9938 19L42.9937 19L46 22.0062L46 22.0061ZM42.9937 19L38 23.9937L38 23.9938L42.9938 19L42.9937 19ZM38 23.9938L41.0062 27L41.0063 26.9999L38 23.9937L38 23.9938ZM41.0062 26.9999L38 30.0061L38 30.0062L41.0063 27L41.0062 26.9999ZM38 30.0062L42.9937 35L42.9938 34.9999L38 30.0061L38 30.0062ZM42.9938 35L46 31.9938L46 31.9937L42.9937 34.9999L42.9938 35ZM46 31.9938L49.0062 35L49.0063 34.9999L46 31.9937L46 31.9938ZM49.0063 35L54 30.0062L54 30.0061L49.0062 34.9999L49.0063 35ZM54 30.0061L50.9938 26.9999L50.9937 27L54 30.0062L54 30.0061ZM50.9938 27L54 23.9938L54 23.9937L50.9937 26.9999L50.9938 27Z" fill="white" mask="url(#path-6-inside-2_211_177)"/>
</svg>
